<svg xmlns="http://www.w3.org/2000/svg" width="41.207" height="39.238" viewBox="0 0 41.207 39.238">
  <path id="Facebook_Icon" data-name="Facebook Icon" d="M41.207,21.294c0-10.9-9.225-19.739-20.6-19.739S0,10.392,0,21.294c0,9.852,7.535,18.018,17.384,19.5V27H12.153V21.294h5.231V16.945c0-4.947,3.076-7.68,7.782-7.68a33.031,33.031,0,0,1,4.612.386v4.858h-2.6c-2.559,0-3.358,1.522-3.358,3.082v3.7h5.714L28.624,27h-4.8V40.793C33.673,39.312,41.207,31.146,41.207,21.294Z" transform="translate(0 -1.555)" fill="#f8f8f8"/>
</svg>
