<svg xmlns="http://www.w3.org/2000/svg" width="37.102" height="37.101" viewBox="0 0 37.102 37.101">
  <path id="Instagram_Icon" data-name="Instagram Icon" d="M33.351,4.831H10.589A7.178,7.178,0,0,0,3.419,12V34.763a7.178,7.178,0,0,0,7.17,7.17H33.352a7.177,7.177,0,0,0,7.17-7.17V12A7.178,7.178,0,0,0,33.351,4.831Zm2.057,4.276.82,0v6.289l-6.268.02-.022-6.288ZM16.674,19.574a6.519,6.519,0,1,1-1.236,3.808A6.528,6.528,0,0,1,16.674,19.574ZM36.906,34.762a3.558,3.558,0,0,1-3.555,3.555H10.589a3.558,3.558,0,0,1-3.556-3.555V19.574h5.538a10.146,10.146,0,1,0,18.794,0h5.54Z" transform="translate(-3.419 -4.831)" fill="#f8f8f8"/>
</svg>
