<svg xmlns="http://www.w3.org/2000/svg" width="43.97" height="35.732" viewBox="0 0 43.97 35.732">
  <path id="Twitter_Icon" data-name="Twitter Icon" d="M47.544,14.556a17.949,17.949,0,0,1-5.181,1.42,9.037,9.037,0,0,0,3.966-4.991,18.058,18.058,0,0,1-5.728,2.19A9.028,9.028,0,0,0,25.23,21.4,25.613,25.613,0,0,1,6.635,11.977,9.032,9.032,0,0,0,9.427,24.021a9,9,0,0,1-4.086-1.129c0,.037,0,.076,0,.114a9.028,9.028,0,0,0,7.237,8.845,9.07,9.07,0,0,1-2.377.316,8.938,8.938,0,0,1-1.7-.162,9.031,9.031,0,0,0,8.427,6.265A18.2,18.2,0,0,1,3.574,42.005,25.527,25.527,0,0,0,17.4,46.058c16.593,0,25.666-13.745,25.666-25.666q0-.586-.025-1.168A18.271,18.271,0,0,0,47.544,14.556Z" transform="translate(-3.574 -10.326)" fill="#f8f8f8"/>
</svg>
