<svg xmlns="http://www.w3.org/2000/svg" width="35.489" height="35.732" viewBox="0 0 35.489 35.732">
  <path id="Youtube_Icon" data-name="Youtube Icon" d="M37.147,12.159c-.215-3.452-2.122-6.185-4.523-6.48A102.114,102.114,0,0,0,20.632,5a123.589,123.589,0,0,0-13.74.7c-2.413.279-4.335,3.019-4.55,6.487C2.159,14.955,2,18.613,2,22.974c0,4.253.157,7.846.339,10.582.217,3.465,2.138,6.2,4.549,6.479a123.625,123.625,0,0,0,13.743.7,102.075,102.075,0,0,0,11.992-.679c2.4-.3,4.308-3.028,4.523-6.48.183-2.755.342-6.389.342-10.707S37.33,14.915,37.147,12.159ZM15.8,30.367v-15l10.288,7.5Z" transform="translate(-2 -5)" fill="#f8f8f8"/>
</svg>
