<svg xmlns="http://www.w3.org/2000/svg" width="74.914" height="72.675" viewBox="0 0 74.914 72.675">
  <path id="Discord_Icon" data-name="Discord Icon" d="M67.067,0c4.863,0,8.785,3.443,9.017,7.495V72.675l-9.259-6.883L61.74,61.741l-5.548-4.233,2.317,6.677H9.955c-4.849,0-8.785-3.225-8.785-7.5V7.51c0-4.052,3.943-7.5,8.8-7.5h57.07ZM45.906,17.209h-.1l-.7.606c7.17,1.817,10.639,4.654,10.639,4.654a41.667,41.667,0,0,0-12.95-3.443,40.582,40.582,0,0,0-8.56,0h-.692a34.467,34.467,0,0,0-9.719,2.226c-1.615.615-2.542,1.017-2.542,1.017s3.466-3.034,11.1-4.654l-.467-.409a22.868,22.868,0,0,0-12.026,3.846s-6.243,9.52-6.243,21.258c0,0,3.459,5.269,12.946,5.469,0,0,1.384-1.614,2.784-3.034-5.327-1.417-7.4-4.252-7.4-4.252a11.949,11.949,0,0,1,1.159.606h.208a.29.29,0,0,1,.208.091v.018a.278.278,0,0,0,.208.091c1.141.412,2.283.818,3.217,1.211A31.358,31.358,0,0,0,33.2,44.132a40.519,40.519,0,0,0,11.1,0,35.462,35.462,0,0,0,6.226-1.62,52.72,52.72,0,0,0,4.832-2.232s-2.075,2.834-7.627,4.251c1.141,1.411,2.75,3.028,2.75,3.028,9.491-.182,13.178-5.451,13.385-5.227,0-11.719-6.278-21.258-6.278-21.258A22.843,22.843,0,0,0,45.709,17.26L45.9,17.2Zm.581,13.363a4.23,4.23,0,0,1,4.393,4.043,4.407,4.407,0,0,1-8.785.018,4.244,4.244,0,0,1,4.393-4.052Zm-15.713,0a4.224,4.224,0,0,1,4.379,4.043,4.238,4.238,0,0,1-4.393,4.058,4.236,4.236,0,0,1-4.393-4.04,4.233,4.233,0,0,1,4.393-4.052Z" transform="translate(-1.17)" fill="#f8f8f8"/>
</svg>
