<svg xmlns="http://www.w3.org/2000/svg" width="249.933" height="251.885" viewBox="0 0 249.933 251.885">
  <g id="Page-1" transform="matrix(0.899, -0.438, 0.438, 0.899, -9.825, 75.702)">
    <g id="_044---Fruity-Drink" data-name="044---Fruity-Drink" transform="translate(-0.008 0.017)">
      <path id="Shape" d="M28.934,6.06l.033.033A19.688,19.688,0,0,1,41.96,11.875,51.129,51.129,0,0,1,53.025,32.444L35.912,51.517a51.3,51.3,0,0,1-22.13-11.464A19.552,19.552,0,0,1,8,27.061l4.586-16.349Z" transform="translate(15.285 14.019)" fill="#e64c3c"/>
      <path id="Shape-2" data-name="Shape" d="M30.674,4.494A19.828,19.828,0,0,1,25.89,17.586c-.033.033-.066.066-.1.066C19.942,23.435,9.441,22.3,9.441,22.3S8.312,11.672,14.16,5.857A19.828,19.828,0,0,1,27.252,1.072a3.3,3.3,0,0,1,3.423,3.423Z" transform="translate(18.429 2.427)" fill="#4fba6f"/>
      <path id="Shape-3" data-name="Shape" d="M19.616,23.874l-.1.1A19.781,19.781,0,0,1,6.424,28.726,3.3,3.3,0,0,1,3,25.3,19.655,19.655,0,0,1,7.787,12.211C13.6,6.363,24.2,7.526,24.2,7.526s1.163,10.467-4.586,16.349Z" transform="translate(3.669 17.206)" fill="#4fba6f"/>
      <path id="Shape-4" data-name="Shape" d="M24.123,22.161a3.323,3.323,0,0,1-2.379-1C10.918,10.046,6.272,9.212,6.229,9.209A3.207,3.207,0,0,1,3.042,5.886,3.436,3.436,0,0,1,6.5,2.563c1.5,0,7.393,1,20,13.956a3.323,3.323,0,0,1-2.382,5.649Z" transform="translate(3.765 5.896)" fill="#4c8056"/>
      <circle id="Oval" cx="3.323" cy="3.323" r="3.323" transform="translate(46.545 33.172)" fill="#f0c419"/>
      <circle id="Oval-2" data-name="Oval" cx="3.323" cy="3.323" r="3.323" transform="translate(36.577 43.14)" fill="#f0c419"/>
      <path id="Shape-5" data-name="Shape" d="M66.445,109.168A22.286,22.286,0,0,1,48.6,112.99a18.41,18.41,0,0,1-4.419-1.794,19.226,19.226,0,0,1-4.453,1.794C25.474,116.645,9.092,102.423,3.144,81.156S4.008,39.687,18.3,36.032a21.835,21.835,0,0,1,17.379,3.522,15.84,15.84,0,0,0,16.98,0A30.538,30.538,0,0,1,58.171,36.8L70.8,70.357C70.864,70.889,66.212,108.7,66.445,109.168Z" transform="translate(-0.992 82.438)" fill="#e64c3c"/>
      <path id="Shape-6" data-name="Shape" d="M8.979,73.88a3.323,3.323,0,0,1-3.2-2.432c-3.4-12.2-1.4-22.114,1.615-27.321a10.676,10.676,0,0,1,6.383-5.479,3.325,3.325,0,0,1,1.661,6.44,4.778,4.778,0,0,0-2.283,2.363,30.57,30.57,0,0,0-.967,22.213,3.323,3.323,0,0,1-3.21,4.217Z" transform="translate(5.999 89.471)" fill="#fff"/>
      <path id="Shape-7" data-name="Shape" d="M40.313,43.336c-1.2,4.752-8.905,6.945-17.279,4.885C17.252,46.791,8.879,40.179,4.293,36.258a2.2,2.2,0,0,1,1-3.855c5.848-1.2,16.249-2.891,22.031-1.462C35.694,33,41.509,38.551,40.313,43.336Z" transform="translate(4.837 70.548)" fill="#4fba6f"/>
      <path id="Shape-8" data-name="Shape" d="M104.643,137.734a6.679,6.679,0,0,1-6.014,3.821H35.893a6.546,6.546,0,0,1-6.214-4.386,4.718,4.718,0,0,1-.4-1.529L21.406,64.8,16.82,23.46l10.567,5.283a29.7,29.7,0,0,0,26.583,0,29.77,29.77,0,0,1,26.55,0l.033.033a29.843,29.843,0,0,0,26.55,0l10.6-5.317-6.214,55.924Z" transform="translate(35.773 54.437)" fill="#f29c1f"/>
      <path id="Shape-9" data-name="Shape" d="M122.3,21.377l-2.692,24.058-10.6,5.317a29.843,29.843,0,0,1-26.55,0l-.033-.033a29.77,29.77,0,0,0-26.55,0,29.7,29.7,0,0,1-26.583,0L18.728,45.434H18.7L17.333,33.073l-1.3-11.7A6.662,6.662,0,0,1,22.649,14h93.04a6.662,6.662,0,0,1,6.613,7.377Z" transform="translate(33.865 32.463)" fill="#9fc9d3"/>
      <path id="Shape-10" data-name="Shape" d="M27.323,182.718a3.323,3.323,0,0,1-3.117-4.476L80.7,25.39a3.323,3.323,0,0,1,1.213-1.568L115.137.561A3.323,3.323,0,0,1,118.945,6L86.57,28.67,30.44,180.548a3.323,3.323,0,0,1-3.117,2.17Z" transform="translate(52.451 -0.017)" fill="#ff5364"/>
      <g id="Group_6" data-name="Group 6" transform="translate(69.805 99.629)">
        <circle id="Oval-3" data-name="Oval" cx="8.307" cy="8.307" r="8.307" fill="#d25627"/>
        <circle id="Oval-4" data-name="Oval" cx="3.323" cy="3.323" r="3.323" transform="translate(0 29.906)" fill="#d25627"/>
        <circle id="Oval-5" data-name="Oval" cx="3.323" cy="3.323" r="3.323" transform="translate(3.323 46.52)" fill="#d25627"/>
      </g>
      <path id="Shape-11" data-name="Shape" d="M116.507,105.473a49.361,49.361,0,0,1-32.564,12.062A49.919,49.919,0,0,1,34,67.593,49.361,49.361,0,0,1,46.062,35.028a3.323,3.323,0,0,1,4.918-.266l6.978,6.978a36.655,36.655,0,0,0,51.837,51.837l6.978,6.978a3.323,3.323,0,0,1-.266,4.918Z" transform="translate(75.679 78.457)" fill="#f0c419"/>
      <path id="Shape-12" data-name="Shape" d="M100.527,88.027A36.11,36.11,0,0,1,81.221,98.1a33.453,33.453,0,0,1-6.579.631h-.066a36.482,36.482,0,0,1-23.327-8.54,29.706,29.706,0,0,1-4.718-4.718,36.482,36.482,0,0,1-8.54-23.327v-.066a33.455,33.455,0,0,1,.631-6.579A36.11,36.11,0,0,1,48.69,36.19Z" transform="translate(84.948 84.008)" fill="#f3d55b"/>
      <path id="Shape-13" data-name="Shape" d="M81.221,84.6a33.453,33.453,0,0,1-6.579.631h-.066l-.033-31.866L51.248,76.691a29.7,29.7,0,0,1-4.718-4.718L69.856,48.679,37.99,48.646v-.066A33.455,33.455,0,0,1,38.621,42l29.407.033L81.187,55.192Z" transform="translate(84.948 97.503)" fill="#f29c1f"/>
      <path id="Shape-14" data-name="Shape" d="M16.313,67.74a3.323,3.323,0,0,1-3.323-3.323V57.772c0-16.947,8.48-24.722,13.537-27.849a3.323,3.323,0,0,1,3.5,5.649c-3.881,2.4-10.387,8.463-10.387,22.193v6.646a3.323,3.323,0,0,1-3.323,3.33Z" transform="translate(26.876 68.407)" fill="#805333"/>
      <path id="Shape-15" data-name="Shape" d="M54.88,14,40.957,51.715c-.731-.3-1.462-.6-2.193-.964l-.033-.033a24.88,24.88,0,0,0-3.921-1.595L47.769,14Z" transform="translate(77.561 32.463)" fill="#df4d60"/>
      <path id="Shape-16" data-name="Shape" d="M63.876,26.2c.731.366,1.462.665,2.193.964L30.448,123.525a3.323,3.323,0,0,1-3.123,2.16,3.565,3.565,0,0,1-1.163-.2A3.363,3.363,0,0,1,24.2,121.2L59.922,24.57a24.879,24.879,0,0,1,3.921,1.595Z" transform="translate(52.449 57.016)" fill="#c03a2b"/>
    </g>
  </g>
</svg>
