<svg id="pencil" xmlns="http://www.w3.org/2000/svg" width="196" height="196" viewBox="0 0 196 196">
  <path id="Path_73" data-name="Path 73" d="M5.236,455.323l-4.225,8.265a9.23,9.23,0,0,0,12.42,12.42l8.265-4.225Z" transform="translate(0 -281.02)" fill="#26457d"/>
  <path id="Path_74" data-name="Path 74" d="M0,0H53.712V14.323H0Z" transform="translate(142.041 15.945) rotate(45)" fill="#e4fbef"/>
  <path id="Path_75" data-name="Path 75" d="M0,0H9.847V14.323H0Z" transform="translate(173.061 46.961) rotate(45)" fill="#d3effb"/>
  <path id="Path_76" data-name="Path 76" d="M61.537,410.629c-.327.2-.663.382-1,.552a14.806,14.806,0,0,1-2.252.931.18.18,0,0,1-.043.016l-28.1,9.035L13.681,404.7l9.035-28.1a.2.2,0,0,1,.016-.043,15.031,15.031,0,0,1,.931-2.256c.17-.339.355-.67.552-1Z" transform="translate(-8.444 -230.4)" fill="#f1d59d"/>
  <path id="Path_77" data-name="Path 77" d="M409.06,53.948,371.074,15.963,383.1,3.934a13.43,13.43,0,0,1,18.993,0l18.993,18.993a13.43,13.43,0,0,1,0,18.993Z" transform="translate(-229.022 0)" fill="#df75a5"/>
  <path id="Path_78" data-name="Path 78" d="M471.1,48.661,464.14,41.7a13.43,13.43,0,0,1,0,18.993L452.111,72.719l6.964,6.964L471.1,67.654A13.43,13.43,0,0,0,471.1,48.661Z" transform="translate(-279.037 -25.735)" fill="#dd5790"/>
  <path id="Path_79" data-name="Path 79" d="M166.641,80.82,50.162,197.3l-1.826,1.822a3.561,3.561,0,0,0-3.12-1l-5.3.884a3.581,3.581,0,0,1-4.121-4.121l1.487-8.916c.17-.339.355-.67.552-1a15.781,15.781,0,0,1,2.366-3.029L153.982,68.157Z" transform="translate(-22.059 -42.066)" fill="#ffe07d"/>
  <path id="Path_80" data-name="Path 80" d="M232.689,146.974,118.9,260.761a15.781,15.781,0,0,1-3.029,2.366c-.327.2-.663.382-1,.552l-8.913,1.487a3.581,3.581,0,0,1-4.121-4.121l.884-5.3a3.561,3.561,0,0,0-1-3.119l1.826-1.822,116.48-116.484Z" transform="translate(-62.78 -82.898)" fill="#ffc250"/>
  <path id="Path_81" data-name="Path 81" d="M186.95,101.235,68.644,219.541a3.559,3.559,0,0,1,1,3.121l-.884,5.3a3.581,3.581,0,0,0,4.121,4.121l5.3-.884a3.558,3.558,0,0,1,3.121,1L199.612,113.9Z" transform="translate(-42.366 -62.481)" fill="#ffd064"/>
</svg>
