<svg xmlns="http://www.w3.org/2000/svg" width="263.819" height="254.266" viewBox="0 0 263.819 254.266">
  <g id="graduation" transform="matrix(0.799, 0.602, -0.602, 0.799, 112.634, -3.477)">
    <g id="Group_7" data-name="Group 7" transform="translate(29.625 147.325)">
      <path id="Path_82" data-name="Path 82" d="M149.567,394.667l-3.982,24.78,7.08-6.195,10.178,7.522-3.54-21.24Z" transform="translate(-116.822 -390.242)" fill="#e14a4a"/>
      <path id="Path_83" data-name="Path 83" d="M98.376,384l-22.125,3.982,9.292,1.77L82,395.5l26.55-7.08Z" transform="translate(-76.251 -384)" fill="#e14a4a"/>
    </g>
    <path id="Path_84" data-name="Path 84" d="M226.161,168.91c-34.072,26.55-77.437,26.55-111.51,0V92.8h111.51Z" transform="translate(-72.562 -58.42)" fill="#3a5569"/>
    <path id="Path_85" data-name="Path 85" d="M13.318,39.382l96.549,41.6,86.977-44.25L105.705,0Z" transform="translate(-7.54)" fill="#637888"/>
    <path id="Path_86" data-name="Path 86" d="M348.534,122.638a1.9,1.9,0,0,1-1.77-1.77V82.813c0-2.655-3.1-3.1-3.54-3.54l-90.27,3.54h0a1.77,1.77,0,1,1,0-3.54l90.712-3.54h0c2.212.443,6.637,2.212,6.637,7.08v38.055A1.9,1.9,0,0,1,348.534,122.638Z" transform="translate(-158.345 -46.651)" fill="#3a5569"/>
    <g id="Group_8" data-name="Group 8" transform="translate(184.389 54.644)">
      <path id="Path_87" data-name="Path 87" d="M483.865,205l-3.54-34.072A1.173,1.173,0,0,0,479,169.6h-2.212a1.413,1.413,0,0,0-1.328,1.327L471.918,205c-.443,4.867,2.212,8.85,6.195,8.85C481.652,213.85,484.307,209.868,483.865,205Z" transform="translate(-471.87 -158.538)" fill="#fec656"/>
      <circle id="Ellipse_1" data-name="Ellipse 1" cx="3.54" cy="3.54" r="3.54" transform="translate(2.26)" fill="#fec656"/>
    </g>
    <path id="Path_88" data-name="Path 88" d="M176.964,382.234s-9.292,14.16-30.09,15.487c0,0-76.552-59.295-131.422-59.295,0,0,1.327-9.735,13.275-14.16L119,348.6Z" transform="translate(-8.789 -201.722)" fill="#c2c6c6"/>
    <path id="Path_89" data-name="Path 89" d="M361.544,378.785c-7.08,15.487-21.683,22.567-32.3,15.487-10.62-6.637-13.718-24.78-6.637-40.268s21.683-22.567,32.3-15.487C365.527,345.155,368.624,363.3,361.544,378.785Z" transform="translate(-197.905 -208.45)" fill="#e5eae9"/>
    <path id="Path_90" data-name="Path 90" d="M325.53,383.95c8.85-.885,11.947,15.045-.885,20.8l-31.86-11.063S317.122,384.835,325.53,383.95Z" transform="translate(-179.499 -236.625)" fill="#888c8c"/>
    <path id="Path_91" data-name="Path 91" d="M323.61,413.578s-23.895,3.1-19.47-21.24c.885-5.753,4.425-14.6,13.275-17.7L278.918,368l12.39,34.958,14.6,10.177C305.468,413.135,313.433,419.33,323.61,413.578Z" transform="translate(-171.194 -227.312)" fill="#bababa"/>
    <path id="Path_92" data-name="Path 92" d="M136.315,300.854c4.867-11.063,13.718-17.7,22.567-18.142C84.986,281.827,16.841,245.1,16.841,245.1S5.778,242.444,1.8,258.374c-4.867,17.7,4.867,23.895,4.867,23.895,56.2,2.655,117.7,45.135,134.52,57.525C131.448,331.829,129.678,315.456,136.315,300.854Z" transform="translate(0 -155.299)" fill="#e0e0df"/>
    <path id="Path_93" data-name="Path 93" d="M176.647,309.492s-34.072,16.373-16.815,39.825l-19.028-8.85s-7.965-23.895,18.585-35.4Z" transform="translate(-85.416 -187.768)" fill="#f16d6e"/>
  </g>
</svg>
